<?xml version="1.0" standalone="no"?>
<!DOCTYPE svg PUBLIC "-//W3C//DTD SVG 20010904//EN"
 "http://www.w3.org/TR/2001/REC-SVG-20010904/DTD/svg10.dtd">
<svg version="1.0" xmlns="http://www.w3.org/2000/svg"
 width="512.000000pt" height="512.000000pt" viewBox="0 0 512.000000 512.000000"
 preserveAspectRatio="xMidYMid meet">
<metadata>
Created by potrace 1.11, written by Peter Selinger 2001-2013
</metadata>
<g transform="translate(0.000000,512.000000) scale(0.100000,-0.100000)"
fill="#000000" stroke="none">
<path d="M2855 5069 c9 -23 19 -47 24 -53 12 -17 68 -164 86 -227 56 -202 58
-439 5 -583 -24 -63 -63 -136 -86 -161 -12 -14 -20 -25 -17 -25 4 0 -16 -22
-44 -50 -28 -27 -56 -50 -62 -50 -6 0 -11 -4 -11 -9 0 -17 -126 -71 -197 -85
-82 -15 -161 -13 -248 9 -63 16 -158 55 -163 68 -2 4 -10 7 -17 7 -7 0 -52 38
-100 85 -48 47 -84 85 -81 85 4 0 -6 19 -21 43 -38 56 -65 116 -58 128 4 5 2
9 -4 9 -5 0 -12 12 -15 28 -4 15 -9 38 -12 52 -3 14 -8 36 -10 50 -2 14 -6 39
-9 55 -13 75 -4 230 20 353 3 20 -3 17 -48 -22 -64 -55 -166 -164 -159 -171 3
-3 0 -5 -6 -5 -7 0 -12 -7 -12 -15 0 -8 -4 -15 -10 -15 -5 0 -10 -7 -10 -15 0
-7 -8 -19 -17 -24 -10 -6 -15 -11 -11 -11 4 0 -11 -34 -32 -75 -21 -41 -37
-75 -35 -75 1 0 -6 -23 -16 -51 -11 -27 -17 -54 -14 -59 3 -5 1 -11 -4 -14
-13 -8 -34 -173 -33 -271 0 -92 4 -139 15 -152 6 -9 5 -13 -2 -13 -7 0 -10 -4
-6 -9 3 -6 8 -29 11 -53 4 -24 10 -54 15 -66 5 -13 7 -27 4 -32 -3 -5 -1 -11
5 -15 6 -4 8 -11 5 -16 -4 -5 -1 -9 6 -9 7 0 9 -3 6 -6 -3 -4 -1 -16 5 -28 11
-19 15 -35 20 -73 1 -7 5 -13 10 -13 4 0 7 -3 7 -7 -1 -5 0 -11 1 -15 1 -5 4
-17 5 -28 1 -11 3 -21 5 -22 4 -7 11 -47 15 -88 2 -25 6 -57 9 -72 2 -16 2
-28 -2 -28 -4 0 -8 -17 -9 -38 -1 -45 -6 -68 -21 -105 -7 -16 -12 -35 -12 -43
0 -8 -4 -14 -10 -14 -5 0 -10 -6 -10 -13 0 -19 -86 -113 -128 -138 -20 -13
-39 -25 -42 -28 -3 -4 -9 -7 -15 -8 -5 -1 -30 -10 -55 -18 -72 -26 -181 -38
-213 -23 -11 6 -17 5 -17 -3 0 -8 -5 -7 -17 2 -9 8 -18 13 -20 11 -6 -5 -83
21 -83 28 0 5 -11 11 -24 14 -53 13 -196 210 -196 270 0 8 -4 17 -9 20 -5 3
-11 20 -14 38 -3 18 -8 49 -11 68 -3 19 -8 54 -11 78 -2 23 -7 47 -10 52 -3 6
-1 10 5 10 6 0 8 5 4 12 -12 19 -12 48 0 48 7 0 7 3 1 8 -11 8 -16 42 -6 42 3
0 7 24 7 53 2 80 9 161 15 172 5 10 10 47 13 93 0 12 4 22 9 22 4 0 6 3 5 8
-1 4 4 31 11 60 7 29 11 55 9 58 -3 2 -16 -11 -29 -31 -13 -19 -27 -35 -31
-35 -5 0 -8 -4 -8 -10 0 -5 -8 -19 -17 -29 -30 -33 -122 -168 -136 -201 -4 -8
-18 -33 -32 -55 -44 -72 -153 -303 -161 -343 -1 -8 -6 -21 -10 -30 -11 -25
-11 -24 -19 -59 -4 -18 -12 -33 -17 -33 -5 0 -7 -4 -4 -8 3 -5 -2 -31 -10 -58
-16 -51 -21 -69 -29 -106 -20 -96 -24 -116 -31 -158 -3 -19 -7 -46 -10 -60
-11 -62 -18 -188 -17 -345 1 -149 7 -280 13 -280 1 0 3 -13 5 -30 4 -46 14
-106 24 -147 5 -21 7 -38 4 -38 -3 0 -1 -6 5 -13 6 -7 11 -22 11 -32 0 -11 1
-27 4 -35 2 -8 7 -28 12 -45 4 -16 10 -34 14 -40 3 -5 6 -15 7 -22 3 -16 24
-84 34 -108 4 -11 23 -58 41 -105 35 -90 136 -294 169 -341 11 -15 20 -32 20
-38 0 -6 5 -11 10 -11 6 0 10 -7 10 -15 0 -8 9 -23 20 -32 11 -10 20 -23 20
-30 0 -7 5 -13 10 -13 6 0 10 -4 10 -10 0 -10 21 -39 58 -77 12 -13 22 -27 22
-30 0 -19 243 -272 329 -343 24 -19 49 -41 56 -48 8 -6 16 -12 20 -12 3 0 16
-9 28 -21 21 -20 194 -139 201 -139 2 0 33 -17 67 -38 35 -21 93 -52 129 -69
57 -27 86 -40 185 -83 21 -9 169 -59 195 -66 58 -15 232 -54 262 -59 167 -26
226 -30 418 -30 168 0 262 5 360 20 83 13 288 58 318 71 17 7 32 10 32 7 0 -3
7 0 15 7 8 7 15 10 15 6 0 -3 15 0 34 8 19 8 37 12 40 8 3 -3 6 0 6 6 0 7 3
11 8 10 4 -2 27 6 52 16 25 11 51 18 58 17 6 -1 12 3 12 9 0 6 5 8 10 5 6 -3
10 -2 10 4 0 5 14 12 30 16 17 4 30 11 30 16 0 5 3 8 8 7 9 -3 106 45 110 55
2 4 9 7 15 7 23 0 237 142 347 231 111 89 268 241 333 323 18 22 42 50 54 63
12 13 20 23 18 23 -5 0 19 30 43 55 6 8 12 18 12 23 0 5 6 15 14 21 39 33 257
436 260 483 1 3 4 10 9 14 4 4 7 13 7 19 0 7 7 30 17 51 9 22 17 46 18 54 2 8
10 34 18 57 9 22 13 44 10 47 -4 3 -2 6 4 6 5 0 10 6 11 13 0 6 3 19 5 27 2 8
8 38 12 65 10 57 12 64 15 68 7 9 23 113 24 159 0 27 4 48 7 48 8 0 11 71 12
265 0 189 -5 285 -14 285 -3 0 -5 16 -4 35 1 20 -1 37 -4 39 -4 3 -6 20 -5 40
1 20 -2 36 -6 36 -5 0 -7 9 -5 20 2 11 0 20 -5 20 -5 0 -7 7 -4 15 3 8 2 20
-2 27 -4 7 -9 19 -11 28 -7 41 -21 104 -23 108 -2 1 -4 7 -5 12 -1 6 -3 11 -4
13 -2 1 -4 12 -7 24 -8 44 -9 48 -21 60 -6 7 -10 22 -8 33 5 28 -13 25 -20 -2
-3 -13 -7 -44 -8 -70 -1 -27 -5 -48 -8 -48 -4 0 -5 -10 -5 -22 1 -13 0 -27 -3
-33 -3 -5 -6 -18 -7 -27 -1 -10 -3 -20 -4 -23 -1 -3 -3 -8 -4 -12 -19 -89 -32
-133 -40 -133 -5 0 -7 -3 -3 -6 14 -14 -66 -198 -128 -295 -48 -74 -161 -199
-180 -199 -7 0 -15 -4 -17 -9 -5 -13 -84 -60 -115 -67 -15 -4 -32 -9 -38 -13
-19 -11 -50 -14 -130 -14 -88 0 -147 9 -156 25 -3 5 -9 9 -13 7 -12 -4 -76 24
-76 33 0 5 -4 7 -9 4 -13 -9 -104 94 -123 139 -32 77 -38 106 -42 180 0 17 -5
33 -11 37 -7 5 -7 8 0 8 6 0 10 35 10 85 0 47 2 85 5 85 3 0 6 12 6 28 0 23 9
77 28 177 2 11 7 40 11 65 9 56 13 79 20 108 3 12 7 32 10 45 5 22 11 63 21
142 9 73 11 349 3 423 -19 173 -63 368 -90 397 -5 5 -9 17 -9 27 0 10 -4 18
-8 18 -4 0 -8 10 -9 21 -1 12 -9 29 -17 38 -8 9 -16 21 -17 26 -4 23 -23 55
-31 55 -5 0 -6 5 -3 10 3 6 1 10 -4 10 -6 0 -11 5 -11 12 0 6 -11 26 -25 43
-13 18 -21 35 -18 39 4 3 -1 6 -10 6 -9 0 -17 7 -17 15 0 8 -58 73 -128 143
-134 133 -178 172 -193 172 -5 0 -9 5 -9 12 0 6 -3 9 -6 6 -3 -3 -17 5 -32 19
-15 14 -43 33 -63 43 -19 10 -41 26 -48 34 -8 9 -18 16 -24 16 -6 0 -18 6 -26
14 -9 7 -36 25 -61 38 -25 14 -62 35 -82 48 l-38 22 15 -43z"/>
</g>
</svg>
